<svg width="160" height="50" viewBox="0 0 160 50" fill="none" xmlns="http://www.w3.org/2000/svg">
<path d="M155 0H5C2.23858 0 0 2.23858 0 5V45C0 47.7614 2.23858 50 5 50H155C157.761 50 160 47.7614 160 45V5C160 2.23858 157.761 0 155 0Z" fill="black"/>
<path d="M34.5056 10.155H17.5992C14.0664 10.155 11.2024 13.018 11.2024 16.551V33.458C11.2024 36.991 14.0664 39.855 17.5992 39.855H34.5056C38.0384 39.855 40.9024 36.991 40.9024 33.458V16.551C40.9024 13.018 38.0384 10.155 34.5056 10.155Z" fill="#E14459"/>
<path d="M18.4423 12.096C18.2183 12.096 18.0035 12.185 17.8453 12.343C17.6871 12.501 17.5983 12.716 17.5985 12.939C17.5987 13.162 17.6879 13.376 17.8464 13.534C18.0049 13.691 18.2198 13.78 18.4438 13.78C18.6679 13.78 18.8827 13.691 19.0411 13.533C19.1994 13.375 19.2884 13.161 19.2884 12.938V12.936C19.288 12.713 19.1986 12.499 19.04 12.342C18.8813 12.184 18.6664 12.096 18.4423 12.096ZM33.5557 12.096C33.3317 12.096 33.1169 12.185 32.9587 12.343C32.8004 12.501 32.7117 12.716 32.7119 12.939C32.7121 13.162 32.8013 13.376 32.9598 13.534C33.1184 13.691 33.3333 13.78 33.5573 13.78C33.7813 13.78 33.9961 13.691 34.1545 13.533C34.3128 13.375 34.4018 13.161 34.4018 12.938V12.936C34.4014 12.713 34.312 12.499 34.1534 12.342C33.9947 12.184 33.7797 12.096 33.5557 12.096Z" fill="#C73148"/>
<path d="M18.4088 12.822C18.1152 12.837 18.1301 13.265 18.1301 13.265C19.7081 16.338 22.6139 17.845 25.9647 17.845C29.3111 17.84 32.2456 16.316 33.8216 13.247C33.8216 13.247 33.8841 12.669 33.2691 12.87C31.6528 15.549 28.9375 17.133 25.9667 17.138C22.9902 17.139 20.2846 15.571 18.6653 12.887C18.5607 12.836 18.4766 12.818 18.4088 12.822ZM29.0891 24.767L28.1913 27.441L27.3173 24.769H26.4642L27.8416 28.656H28.5058L29.4056 26.102L30.3044 28.656H30.974L32.3485 24.769H31.5166L30.6411 27.441L29.7434 24.767H29.0891ZM24.3204 24.768L22.5784 28.654H23.3973L23.7336 27.901L23.7574 27.845H25.5674L25.922 28.654H26.7633L25.0371 24.791L25.0217 24.768H24.3204ZM36.9361 24.768V28.651H37.7278V24.768H36.9361ZM14.2378 24.769V28.657H15.0404V27.078H16.8518V28.657H17.6544V24.769H16.8518V26.338H15.0404V24.769H14.2378ZM21.3681 24.77V26.995C21.3681 27.628 21.049 27.965 20.4693 27.965C19.8863 27.965 19.565 27.618 19.565 26.969V24.772H18.763V26.996C18.763 28.089 19.3814 28.716 20.4589 28.716C21.5465 28.716 22.1701 28.077 22.1701 26.963V24.77H21.3681ZM32.9953 24.771V28.654H35.9813V27.946H33.7864V26.984H35.2457V26.275H33.7864V25.48H35.9049V24.771H32.9953ZM24.6601 25.752L25.2326 27.054L25.2712 27.143H24.058L24.0962 27.054L24.6601 25.752Z" fill="white"/>
<path d="M56.3398 12.939C56.2861 11.782 55.4316 10.703 53.7617 10.703C52.0332 10.703 50.9687 11.855 50.9687 13.716V14.58C50.9687 16.377 51.8428 17.632 53.7373 17.632C55.6904 17.632 56.3545 16.279 56.3545 15.288V13.945H53.752V14.858H55.2266V15.347C55.2266 16.069 54.6357 16.626 53.7471 16.626C52.6484 16.626 52.1553 15.806 52.1553 14.58V13.721C52.1553 12.319 52.8486 11.709 53.7471 11.709C54.4844 11.709 55.0898 12.124 55.1875 12.939H56.3398ZM62.5695 16.514H59.5373V14.585H62.3889V13.652H59.5373V11.821H62.5695V10.835H58.3605V17.5H62.5695V16.514ZM67.0756 17.5V11.836H69.0141V10.835H63.9701V11.836H65.9037V17.5H67.0756ZM74.5984 17.5V10.835H73.4168V17.5H74.5984ZM79.4268 17.5V11.836H81.3652V10.835H76.3213V11.836H78.2549V17.5H79.4268ZM86.7006 13.74C86.7006 12.393 87.3842 11.704 88.307 11.704C89.2348 11.704 89.9086 12.393 89.9086 13.74V14.644C89.9086 15.991 89.2348 16.631 88.307 16.631C87.3842 16.631 86.7006 15.991 86.7006 14.644V13.74ZM85.5043 14.639C85.5043 16.523 86.5687 17.632 88.3021 17.632C90.0355 17.632 91.1098 16.523 91.1098 14.639V13.75C91.1098 11.86 90.0502 10.703 88.3119 10.703C86.5834 10.703 85.5043 11.855 85.5043 13.75V14.639ZM94.2193 17.5V12.822H94.2535L97.3443 17.5H98.3551V10.835H97.2516V15.498H97.2125L94.1314 10.835H93.1109V17.5H94.2193Z" fill="white"/>
<path d="M51.6865 36.5L52.876 32.727H57.7056L58.895 36.5H61.5508L56.7827 22.503H53.9629L49.1846 36.5H51.6865ZM55.3472 25.016L57.1724 30.84H53.4194L55.2549 25.016H55.3472ZM68.5185 36.644C71.0102 36.644 72.7124 34.777 72.7124 31.547V30.594C72.7124 27.333 70.9897 25.498 68.5698 25.498C67.0932 25.498 65.9961 26.205 65.4116 27.251H65.3193V25.651H62.9506V40.161H65.3808V34.972H65.4731C66.0268 35.977 67.0932 36.644 68.5185 36.644ZM67.8828 34.675C66.3344 34.675 65.3603 33.434 65.3603 31.424V30.666C65.3603 28.707 66.3242 27.466 67.852 27.466C69.3491 27.466 70.2412 28.625 70.2412 30.676V31.424C70.2412 33.547 69.2876 34.675 67.8828 34.675ZM80.4902 36.644C82.9819 36.644 84.684 34.777 84.684 31.547V30.594C84.684 27.333 82.9613 25.498 80.5414 25.498C79.0649 25.498 77.9677 26.205 77.3832 27.251H77.2909V25.651H74.9223V40.161H77.3525V34.972H77.4447C77.9985 35.977 79.0649 36.644 80.4902 36.644ZM79.8544 34.675C78.3061 34.675 77.332 33.434 77.332 31.424V30.666C77.332 28.707 78.2958 27.466 79.8237 27.466C81.3207 27.466 82.2128 28.625 82.2128 30.676V31.424C82.2128 33.547 81.2592 34.675 79.8544 34.675ZM97.6913 26.923C97.5785 24.493 95.7841 22.227 92.2772 22.227C88.6473 22.227 86.412 24.646 86.412 28.553V30.368C86.412 34.142 88.2474 36.777 92.226 36.777C96.3275 36.777 97.722 33.937 97.722 31.855V29.035H92.2567V30.953H95.3534V31.978C95.3534 33.496 94.1127 34.665 92.2465 34.665C89.9393 34.665 88.9037 32.942 88.9037 30.368V28.563C88.9037 25.621 90.3597 24.339 92.2465 24.339C93.7948 24.339 95.0663 25.21 95.2714 26.923H97.6913ZM105.961 35.177H106.054V36.5H108.35V29.127C108.35 26.667 106.515 25.477 104.075 25.477C101.101 25.477 99.891 27.066 99.7987 28.902H102.075C102.147 27.979 102.834 27.343 104.023 27.343C105.254 27.343 105.951 28.01 105.951 29.199V30.204H103.244C100.742 30.214 99.3988 31.445 99.3988 33.383C99.3988 35.403 100.855 36.664 102.957 36.664C104.556 36.664 105.5 35.998 105.961 35.177ZM103.716 34.849C102.742 34.849 101.819 34.326 101.819 33.229C101.819 32.357 102.424 31.752 103.695 31.752H105.951V32.932C105.951 34.07 104.977 34.849 103.716 34.849ZM110.94 36.5H113.36V21.765H110.94V36.5ZM116.123 36.5H118.543V21.765H116.123V36.5ZM125.603 36.685C128.351 36.685 129.777 35.075 130.074 33.321H127.798C127.541 34.244 126.752 34.808 125.624 34.808C124.137 34.808 123.173 33.649 123.173 31.886V31.609H130.197V30.563C130.197 27.487 128.413 25.467 125.501 25.467C122.65 25.467 120.794 27.384 120.794 30.471V31.537C120.794 34.788 122.671 36.685 125.603 36.685ZM123.173 29.979V29.958C123.173 28.471 124.096 27.312 125.511 27.312C126.916 27.312 127.828 28.461 127.828 29.958V29.979H123.173ZM132.335 36.5H134.806V30.163C134.806 28.697 135.422 27.6 137.226 27.6C137.616 27.6 138.026 27.62 138.231 27.682V25.559C138.016 25.518 137.759 25.487 137.431 25.487C135.934 25.487 135.124 26.42 134.858 27.097H134.755V25.651H132.335V36.5ZM149.506 25.651H146.932L144.399 34.203H144.317L141.815 25.651H139.139L142.964 36.562L142.851 37.002C142.635 37.987 142.153 38.551 140.831 38.551C140.544 38.551 140.144 38.52 139.969 38.489V40.284C140.246 40.335 140.81 40.396 141.333 40.396C143.948 40.396 144.891 38.889 145.578 37.043L145.855 36.305C145.886 36.223 149.506 25.651 149.506 25.651Z" fill="white"/>
</svg>
