<svg width="160" height="51" viewBox="0 0 160 51" fill="none" xmlns="http://www.w3.org/2000/svg">
<path d="M155 0.5H5C2.23858 0.5 0 2.73858 0 5.5V45.5C0 48.2614 2.23858 50.5 5 50.5H155C157.761 50.5 160 48.2614 160 45.5V5.5C160 2.73858 157.761 0.5 155 0.5Z" fill="black"/>
<path fill-rule="evenodd" clip-rule="evenodd" d="M31.4359 9C31.7042 10.8222 30.9625 12.6073 29.9841 13.8703C28.9374 15.225 27.1331 16.2728 25.385 16.2181C25.0658 14.4736 25.8829 12.6761 26.8771 11.4678C27.9677 10.1342 29.8368 9.1111 31.4359 9ZM36.6874 34.6481C37.5886 33.2669 37.9253 32.5702 38.6249 31.0108C33.5365 29.0758 32.7212 21.8418 37.757 19.0653C36.221 17.139 34.0625 16.0225 32.0251 16.0225C30.557 16.0225 29.5512 16.4056 28.6367 16.7539C27.8747 17.0441 27.1762 17.3102 26.3265 17.3102C25.4084 17.3102 24.5954 17.0186 23.7441 16.7134C22.8086 16.378 21.8269 16.026 20.6087 16.026C18.3223 16.026 15.8886 17.423 14.3456 19.8114C12.1766 23.1753 12.5466 29.4991 16.0639 34.8862C17.3211 36.8142 19.0008 38.9804 21.1979 38.9998C22.1095 39.0088 22.7161 38.7368 23.3726 38.4423C24.1239 38.1053 24.9406 37.739 26.3546 37.7315C27.7769 37.723 28.5807 38.0937 29.3221 38.4357C29.9617 38.7307 30.5549 39.0043 31.4587 38.9945C33.6575 38.9769 35.4302 36.5761 36.6874 34.6481Z" fill="white"/>
<path d="M51.1592 11.0015V17H53.2729C55.2241 17 55.9404 15.73 55.9404 13.9897C55.9404 12.2319 55.2065 11.0015 53.2729 11.0015H51.1592ZM52.2227 11.8892H53.1455C54.4243 11.8892 54.8462 12.7593 54.8462 14.0073C54.8462 15.4883 54.2617 16.1123 53.1455 16.1123H52.2227V11.8892ZM58.5105 13.6162C58.5105 12.4033 59.1258 11.7837 59.9563 11.7837C60.7913 11.7837 61.3977 12.4033 61.3977 13.6162V14.4292C61.3977 15.6421 60.7913 16.2178 59.9563 16.2178C59.1258 16.2178 58.5105 15.6421 58.5105 14.4292V13.6162ZM57.4339 14.4248C57.4339 16.1211 58.3919 17.1187 59.9519 17.1187C61.512 17.1187 62.4788 16.1211 62.4788 14.4248V13.625C62.4788 11.9243 61.5252 10.8828 59.9607 10.8828C58.4051 10.8828 57.4339 11.9199 57.4339 13.625V14.4248ZM66.2354 17L67.3912 12.6802H67.4307L68.5865 17H69.5577L71.1617 11.0015H70.0235L69.0303 15.4048H68.9864L67.8921 11.0015H66.9341L65.8355 15.4048H65.796L64.7984 11.0015H63.6602L65.2598 17H66.2354ZM73.5824 17V12.79H73.6131L76.3949 17H77.3045V11.0015H76.3114V15.1982H76.2762L73.5033 11.0015H72.5848V17H73.5824ZM83.0255 16.0859H80.4152V11.0015H79.3517V17H83.0255V16.0859ZM85.2704 13.6162C85.2704 12.4033 85.8856 11.7837 86.7162 11.7837C87.5512 11.7837 88.1576 12.4033 88.1576 13.6162V14.4292C88.1576 15.6421 87.5512 16.2178 86.7162 16.2178C85.8856 16.2178 85.2704 15.6421 85.2704 14.4292V13.6162ZM84.1937 14.4248C84.1937 16.1211 85.1518 17.1187 86.7118 17.1187C88.2719 17.1187 89.2387 16.1211 89.2387 14.4248V13.625C89.2387 11.9243 88.2851 10.8828 86.7206 10.8828C85.1649 10.8828 84.1937 11.9199 84.1937 13.625V14.4248ZM91.4264 17L91.9362 15.3828H94.006L94.5158 17H95.654L93.6105 11.0015H92.402L90.3542 17H91.4264ZM92.9953 12.0781L93.7775 14.5742H92.1691L92.9557 12.0781H92.9953ZM97.1123 11.0015V17H99.226C101.177 17 101.894 15.73 101.894 13.9897C101.894 12.2319 101.16 11.0015 99.226 11.0015H97.1123ZM98.1757 11.8892H99.0986C100.377 11.8892 100.799 12.7593 100.799 14.0073C100.799 15.4883 100.215 16.1123 99.0986 16.1123H98.1757V11.8892ZM106.968 13.6162C106.968 12.4033 107.583 11.7837 108.414 11.7837C109.249 11.7837 109.855 12.4033 109.855 13.6162V14.4292C109.855 15.6421 109.249 16.2178 108.414 16.2178C107.583 16.2178 106.968 15.6421 106.968 14.4292V13.6162ZM105.891 14.4248C105.891 16.1211 106.849 17.1187 108.409 17.1187C109.969 17.1187 110.936 16.1211 110.936 14.4248V13.625C110.936 11.9243 109.982 10.8828 108.418 10.8828C106.862 10.8828 105.891 11.9199 105.891 13.625V14.4248ZM113.735 17V12.79H113.765L116.547 17H117.457V11.0015H116.464V15.1982H116.429L113.656 11.0015H112.737V17H113.735ZM124.219 17V11.9023H125.963V11.0015H121.424V11.9023H123.164V17H124.219ZM132.22 17V11.0015H131.157V13.4756H128.485V11.0015H127.422V17H128.485V14.3721H131.157V17H132.22ZM138.047 16.1123H135.318V14.3765H137.884V13.5371H135.318V11.8892H138.047V11.0015H134.259V17H138.047V16.1123Z" fill="white"/>
<path d="M49.1909 39L54.4243 23.6704H57.5127L62.7349 39H59.8262L58.5234 34.8672H53.2339L51.9312 39H49.1909ZM53.8291 32.8008H57.9395L55.9404 26.4219H55.8394L53.8291 32.8008ZM64.4028 43.0093V27.1069H66.9971V28.8252H67.0981C67.3452 28.2562 67.772 27.8032 68.3784 27.4663C68.9848 27.1219 69.7335 26.9497 70.6245 26.9497C71.9796 26.9497 73.0615 27.4251 73.8701 28.376C74.6862 29.3268 75.0942 30.652 75.0942 32.3516V33.7778C75.0942 35.4774 74.6862 36.7988 73.8701 37.7422C73.0615 38.6855 71.9647 39.1572 70.5796 39.1572C69.7111 39.1572 68.9923 38.9888 68.4233 38.6519C67.8543 38.3149 67.435 37.8732 67.1655 37.3267H67.0532V43.0093H64.4028ZM67.0532 33.6318C67.0532 34.6126 67.2965 35.4212 67.7832 36.0576C68.2773 36.6865 68.9399 37.001 69.771 37.001C70.5646 37.001 71.1972 36.709 71.6689 36.125C72.1481 35.5335 72.3877 34.6763 72.3877 33.5532V32.5537C72.3877 31.4456 72.1518 30.5959 71.6802 30.0044C71.2085 29.4054 70.5571 29.106 69.7261 29.106C68.9025 29.106 68.2511 29.4092 67.772 30.0156C67.2928 30.6146 67.0532 31.4157 67.0532 32.4189V33.6318ZM77.4248 43.0093V27.1069H80.019V28.8252H80.1201C80.3671 28.2562 80.7939 27.8032 81.4004 27.4663C82.0068 27.1219 82.7555 26.9497 83.6464 26.9497C85.0016 26.9497 86.0835 27.4251 86.8921 28.376C87.7081 29.3268 88.1162 30.652 88.1162 32.3516V33.7778C88.1162 35.4774 87.7081 36.7988 86.8921 37.7422C86.0835 38.6855 84.9866 39.1572 83.6015 39.1572C82.733 39.1572 82.0143 38.9888 81.4453 38.6519C80.8763 38.3149 80.457 37.8732 80.1875 37.3267H80.0752V43.0093H77.4248ZM80.0752 33.6318C80.0752 34.6126 80.3185 35.4212 80.8051 36.0576C81.2993 36.6865 81.9619 37.001 82.7929 37.001C83.5866 37.001 84.2192 36.709 84.6909 36.125C85.17 35.5335 85.4096 34.6763 85.4096 33.5532V32.5537C85.4096 31.4456 85.1738 30.5959 84.7021 30.0044C84.2304 29.4054 83.5791 29.106 82.748 29.106C81.9244 29.106 81.2731 29.4092 80.7939 30.0156C80.3147 30.6146 80.0752 31.4157 80.0752 32.4189V33.6318ZM93.9003 34.71H96.5395C96.5994 35.3913 96.9213 35.9603 97.5053 36.417C98.0893 36.8662 98.8866 37.0908 99.8974 37.0908C100.856 37.0908 101.604 36.8849 102.143 36.4731C102.69 36.0614 102.963 35.5036 102.963 34.7998C102.963 34.2458 102.769 33.804 102.379 33.4746C101.997 33.1452 101.391 32.8794 100.56 32.6772L98.1005 32.082C97.5689 31.9622 97.0823 31.7975 96.6405 31.5879C96.2063 31.3708 95.8058 31.1012 95.4389 30.7793C95.0795 30.4499 94.7988 30.0418 94.5966 29.5552C94.3945 29.0685 94.2934 28.522 94.2934 27.9155C94.2934 26.9647 94.5517 26.1374 95.0683 25.4336C95.5849 24.7223 96.2625 24.1945 97.101 23.8501C97.9395 23.5057 98.8717 23.3335 99.8974 23.3335C100.931 23.3335 101.863 23.5094 102.694 23.8613C103.532 24.2132 104.199 24.7373 104.693 25.4336C105.194 26.1224 105.453 26.9235 105.468 27.8369H102.885C102.832 27.1706 102.548 26.6203 102.031 26.186C101.515 25.7518 100.796 25.5347 99.8749 25.5347C99.0139 25.5347 98.3214 25.7293 97.7973 26.1187C97.2807 26.5005 97.0224 27.0283 97.0224 27.7021C97.0224 28.6979 97.7262 29.3605 99.1337 29.6899L101.604 30.2852C102.218 30.4274 102.757 30.6034 103.222 30.813C103.686 31.0226 104.109 31.2922 104.491 31.6216C104.88 31.951 105.176 32.3628 105.378 32.8569C105.58 33.3511 105.681 33.9201 105.681 34.564C105.681 36.0464 105.135 37.2069 104.041 38.0454C102.956 38.884 101.511 39.3032 99.7065 39.3032C98.8754 39.3032 98.123 39.2096 97.4491 39.0225C96.7828 38.8353 96.2325 38.592 95.7983 38.2925C95.3715 37.993 95.0121 37.6411 94.7201 37.2368C94.4281 36.825 94.2185 36.4132 94.0912 36.0015C93.9714 35.5822 93.9078 35.1517 93.9003 34.71ZM107.136 29.2856V27.208H108.843V24.2432H111.426V27.208H113.739V29.2856H111.426V35.3838C111.426 36.0052 111.557 36.432 111.819 36.6641C112.088 36.8887 112.556 37.001 113.223 37.001C113.515 37.001 113.709 36.9935 113.807 36.9785V38.9888C113.425 39.0487 113.013 39.0786 112.571 39.0786C111.605 39.0786 110.845 38.9551 110.291 38.708C109.737 38.4609 109.348 38.0978 109.123 37.6187C108.906 37.132 108.798 36.4769 108.798 35.6533V29.2856H107.136ZM115.272 33.4634V32.6211C115.272 31.513 115.463 30.536 115.845 29.6899C116.234 28.8439 116.837 28.1701 117.653 27.6685C118.469 27.1668 119.458 26.916 120.618 26.916C122.355 26.916 123.676 27.4326 124.582 28.4658C125.496 29.4915 125.953 30.8729 125.953 32.6099V33.4634C125.953 35.2453 125.5 36.6491 124.594 37.6748C123.688 38.693 122.363 39.2021 120.618 39.2021C118.874 39.2021 117.545 38.693 116.631 37.6748C115.725 36.6566 115.272 35.2528 115.272 33.4634ZM117.934 33.396C117.934 33.9051 117.979 34.3693 118.069 34.7886C118.159 35.2078 118.301 35.5972 118.495 35.9565C118.69 36.3084 118.967 36.5854 119.327 36.7876C119.686 36.9897 120.116 37.0908 120.618 37.0908C121.112 37.0908 121.539 36.9935 121.898 36.7988C122.258 36.5967 122.531 36.3159 122.718 35.9565C122.913 35.5972 123.051 35.2078 123.134 34.7886C123.224 34.3693 123.268 33.9051 123.268 33.396V32.7109C123.268 32.1943 123.224 31.7264 123.134 31.3071C123.051 30.8879 122.913 30.4985 122.718 30.1392C122.523 29.7798 122.246 29.5028 121.887 29.3081C121.535 29.106 121.112 29.0049 120.618 29.0049C120.124 29.0049 119.693 29.106 119.327 29.3081C118.967 29.5103 118.69 29.791 118.495 30.1504C118.301 30.5023 118.159 30.8916 118.069 31.3184C117.979 31.7376 117.934 32.2018 117.934 32.7109V33.396ZM128.384 39V27.1182H131.035V28.6567H131.136C131.585 27.5112 132.524 26.9385 133.954 26.9385C134.261 26.9385 134.553 26.9647 134.83 27.0171V29.3418C134.643 29.2819 134.276 29.252 133.73 29.252C131.963 29.252 131.079 30.1729 131.079 32.0146V39H128.384ZM135.791 33.5869V32.5874C135.791 30.8504 136.248 29.4728 137.161 28.4546C138.074 27.4289 139.336 26.916 140.946 26.916C142.585 26.916 143.851 27.4289 144.742 28.4546C145.64 29.4803 146.089 30.8542 146.089 32.5762V33.6431H138.408V34.0137C138.408 34.8896 138.64 35.6234 139.104 36.2148C139.568 36.8063 140.231 37.1021 141.092 37.1021C141.773 37.1021 142.305 36.9523 142.686 36.6528C143.076 36.3534 143.315 35.9753 143.405 35.5186H145.966C145.928 35.8555 145.842 36.1886 145.707 36.5181C145.58 36.8475 145.389 37.1769 145.135 37.5063C144.88 37.8358 144.573 38.124 144.214 38.3711C143.862 38.6182 143.416 38.8203 142.877 38.9775C142.338 39.1273 141.747 39.2021 141.103 39.2021C139.411 39.2021 138.101 38.7043 137.172 37.7085C136.251 36.7052 135.791 35.3314 135.791 33.5869ZM138.408 31.8574H143.506V31.835C143.506 30.9814 143.278 30.2889 142.821 29.7573C142.364 29.2257 141.747 28.96 140.968 28.96C140.182 28.96 139.557 29.2295 139.093 29.7686C138.636 30.3001 138.408 30.9889 138.408 31.835V31.8574Z" fill="white"/>
</svg>
