<svg width="160" height="50" viewBox="0 0 160 50" fill="none" xmlns="http://www.w3.org/2000/svg">
<path d="M155 0H5C2.23858 0 0 2.23858 0 5V45C0 47.7614 2.23858 50 5 50H155C157.761 50 160 47.7614 160 45V5C160 2.23858 157.761 0 155 0Z" fill="black"/>
<mask id="mask0_3_37" style="mask-type:alpha" maskUnits="userSpaceOnUse" x="48" y="20" width="102" height="23">
<path d="M149.712 20.234H48.2199V42.5254H149.712V20.234Z" fill="white"/>
<path d="M81.2809 26.986C78.5236 26.986 76.2711 29.06 76.2711 31.922C76.2711 34.76 78.5236 36.856 81.2809 36.856C84.0441 36.856 86.2966 34.76 86.2966 31.922C86.2966 29.06 84.0441 26.986 81.2809 26.986ZM81.2809 34.912C79.768 34.912 78.4664 33.678 78.4664 31.922C78.4664 30.142 79.768 28.93 81.2809 28.93C82.7939 28.93 84.1013 30.142 84.1013 31.922C84.1013 33.678 82.7939 34.912 81.2809 34.912ZM70.35 26.986C67.5869 26.986 65.3402 29.06 65.3402 31.922C65.3402 34.76 67.5869 36.856 70.35 36.856C73.1117 36.856 75.3598 34.76 75.3598 31.922C75.3598 29.06 73.1117 26.986 70.35 26.986ZM70.35 34.912C68.8356 34.912 67.5296 33.678 67.5296 31.922C67.5296 30.142 68.8356 28.93 70.35 28.93C71.863 28.93 73.1646 30.142 73.1646 31.922C73.1646 33.678 71.863 34.912 70.35 34.912ZM57.3427 28.499V30.596H62.4098C62.2616 31.768 61.8654 32.629 61.2578 33.23C60.5183 33.955 59.3663 34.76 57.3427 34.76C54.2244 34.76 51.7826 32.273 51.7826 29.191C51.7826 26.109 54.2244 23.621 57.3427 23.621C59.0288 23.621 60.2556 24.272 61.161 25.117L62.6563 23.639C61.3899 22.444 59.7053 21.525 57.3427 21.525C53.0666 21.525 49.4729 24.964 49.4729 29.191C49.4729 33.417 53.0666 36.856 57.3427 36.856C59.6539 36.856 61.3899 36.107 62.7546 34.703C64.1531 33.321 64.5889 31.378 64.5889 29.808C64.5889 29.321 64.5478 28.873 64.4744 28.499H57.3427ZM110.531 30.125C110.119 29.021 108.847 26.986 106.255 26.986C103.687 26.986 101.549 28.986 101.549 31.922C101.549 34.686 103.665 36.856 106.502 36.856C108.795 36.856 110.119 35.474 110.663 34.669L108.961 33.548C108.393 34.368 107.62 34.912 106.502 34.912C105.391 34.912 104.594 34.409 104.083 33.417L110.762 30.686L110.531 30.125ZM103.722 31.768C103.665 29.865 105.218 28.89 106.33 28.89C107.202 28.89 107.941 29.321 108.188 29.938L103.722 31.768ZM98.2943 36.556H100.49V22.052H98.2943V36.556ZM94.6991 28.085H94.6257C94.1327 27.508 93.1921 26.986 92.0005 26.986C89.5 26.986 87.2138 29.156 87.2138 31.938C87.2138 34.703 89.5 36.856 92.0005 36.856C93.1921 36.856 94.1327 36.329 94.6257 35.735H94.6991V36.442C94.6991 38.329 93.6792 39.343 92.0343 39.343C90.693 39.343 89.861 38.386 89.5176 37.581L87.6085 38.369C88.1588 39.677 89.6159 41.287 92.0343 41.287C94.6081 41.287 96.7799 39.79 96.7799 36.148V27.286H94.6991V28.085ZM92.1883 34.912C90.6754 34.912 89.409 33.661 89.409 31.938C89.409 30.199 90.6754 28.93 92.1883 28.93C93.6793 28.93 94.8547 30.199 94.8547 31.938C94.8547 33.661 93.6793 34.912 92.1883 34.912ZM120.809 22.052H115.559V36.556H117.748V31.06H120.809C123.241 31.06 125.625 29.321 125.625 26.555C125.625 23.791 123.235 22.052 120.809 22.052ZM120.866 29.043H117.748V24.069H120.866C122.501 24.069 123.434 25.411 123.434 26.555C123.434 27.678 122.501 29.043 120.866 29.043ZM134.4 26.959C132.819 26.959 131.174 27.649 130.497 29.179L132.44 29.984C132.858 29.179 133.627 28.918 134.44 28.918C135.576 28.918 136.728 29.592 136.745 30.783V30.935C136.349 30.709 135.501 30.374 134.458 30.374C132.365 30.374 130.233 31.513 130.233 33.637C130.233 35.581 131.947 36.833 133.874 36.833C135.347 36.833 136.16 36.176 136.671 35.411H136.745V36.532H138.86V30.969C138.86 28.397 136.917 26.959 134.4 26.959ZM134.136 34.906C133.42 34.906 132.422 34.556 132.422 33.678C132.422 32.555 133.667 32.125 134.744 32.125C135.708 32.125 136.16 32.335 136.745 32.612C136.574 33.955 135.404 34.906 134.136 34.906ZM146.564 27.276L144.047 33.563H143.973L141.371 27.276H139.01L142.919 36.062L140.688 40.952H142.976L149 27.276H146.564ZM126.829 36.556H129.024V22.052H126.829V36.556Z" fill="black"/>
</mask>
<g mask="url(#mask0_3_37)">
<path d="M81.2809 26.986C78.5236 26.986 76.2711 29.06 76.2711 31.922C76.2711 34.76 78.5236 36.856 81.2809 36.856C84.0441 36.856 86.2966 34.76 86.2966 31.922C86.2966 29.06 84.0441 26.986 81.2809 26.986ZM81.2809 34.912C79.768 34.912 78.4664 33.678 78.4664 31.922C78.4664 30.142 79.768 28.93 81.2809 28.93C82.7939 28.93 84.1013 30.142 84.1013 31.922C84.1013 33.678 82.7939 34.912 81.2809 34.912ZM70.35 26.986C67.5869 26.986 65.3402 29.06 65.3402 31.922C65.3402 34.76 67.5869 36.856 70.35 36.856C73.1117 36.856 75.3598 34.76 75.3598 31.922C75.3598 29.06 73.1117 26.986 70.35 26.986ZM70.35 34.912C68.8356 34.912 67.5296 33.678 67.5296 31.922C67.5296 30.142 68.8356 28.93 70.35 28.93C71.863 28.93 73.1646 30.142 73.1646 31.922C73.1646 33.678 71.863 34.912 70.35 34.912ZM57.3427 28.499V30.596H62.4098C62.2616 31.768 61.8654 32.629 61.2578 33.23C60.5183 33.955 59.3663 34.76 57.3427 34.76C54.2244 34.76 51.7826 32.273 51.7826 29.191C51.7826 26.109 54.2244 23.621 57.3427 23.621C59.0288 23.621 60.2556 24.272 61.161 25.117L62.6563 23.639C61.3899 22.444 59.7053 21.525 57.3427 21.525C53.0666 21.525 49.4729 24.964 49.4729 29.191C49.4729 33.417 53.0666 36.856 57.3427 36.856C59.6539 36.856 61.3899 36.107 62.7546 34.703C64.1531 33.321 64.5889 31.378 64.5889 29.808C64.5889 29.321 64.5478 28.873 64.4744 28.499H57.3427ZM110.531 30.125C110.119 29.021 108.847 26.986 106.255 26.986C103.687 26.986 101.549 28.986 101.549 31.922C101.549 34.686 103.665 36.856 106.502 36.856C108.795 36.856 110.119 35.474 110.663 34.669L108.961 33.548C108.393 34.368 107.62 34.912 106.502 34.912C105.391 34.912 104.594 34.409 104.083 33.417L110.762 30.686L110.531 30.125ZM103.722 31.768C103.665 29.865 105.218 28.89 106.33 28.89C107.202 28.89 107.941 29.321 108.188 29.938L103.722 31.768ZM98.2943 36.556H100.49V22.052H98.2943V36.556ZM94.6991 28.085H94.6257C94.1327 27.508 93.1921 26.986 92.0005 26.986C89.5 26.986 87.2138 29.156 87.2138 31.938C87.2138 34.703 89.5 36.856 92.0005 36.856C93.1921 36.856 94.1327 36.329 94.6257 35.735H94.6991V36.442C94.6991 38.329 93.6792 39.343 92.0343 39.343C90.693 39.343 89.861 38.386 89.5176 37.581L87.6085 38.369C88.1588 39.677 89.6159 41.287 92.0343 41.287C94.6081 41.287 96.7799 39.79 96.7799 36.148V27.286H94.6991V28.085ZM92.1883 34.912C90.6754 34.912 89.409 33.661 89.409 31.938C89.409 30.199 90.6754 28.93 92.1883 28.93C93.6793 28.93 94.8547 30.199 94.8547 31.938C94.8547 33.661 93.6793 34.912 92.1883 34.912ZM120.809 22.052H115.559V36.556H117.748V31.06H120.809C123.241 31.06 125.625 29.321 125.625 26.555C125.625 23.791 123.235 22.052 120.809 22.052ZM120.866 29.043H117.748V24.069H120.866C122.501 24.069 123.434 25.411 123.434 26.555C123.434 27.678 122.501 29.043 120.866 29.043ZM134.4 26.959C132.819 26.959 131.174 27.649 130.497 29.179L132.44 29.984C132.858 29.179 133.627 28.918 134.44 28.918C135.576 28.918 136.728 29.592 136.745 30.783V30.935C136.349 30.709 135.501 30.374 134.458 30.374C132.365 30.374 130.233 31.513 130.233 33.637C130.233 35.581 131.947 36.833 133.874 36.833C135.347 36.833 136.16 36.176 136.671 35.411H136.745V36.532H138.86V30.969C138.86 28.397 136.917 26.959 134.4 26.959ZM134.136 34.906C133.42 34.906 132.422 34.556 132.422 33.678C132.422 32.555 133.667 32.125 134.744 32.125C135.708 32.125 136.16 32.335 136.745 32.612C136.574 33.955 135.404 34.906 134.136 34.906ZM146.564 27.276L144.047 33.563H143.973L141.371 27.276H139.01L142.919 36.062L140.688 40.952H142.976L149 27.276H146.564ZM126.829 36.556H129.024V22.052H126.829V36.556Z" fill="white"/>
<path d="M81.2809 26.986C78.5236 26.986 76.2711 29.06 76.2711 31.922C76.2711 34.76 78.5236 36.856 81.2809 36.856C84.0441 36.856 86.2966 34.76 86.2966 31.922C86.2966 29.06 84.0441 26.986 81.2809 26.986ZM81.2809 34.912C79.768 34.912 78.4664 33.678 78.4664 31.922C78.4664 30.142 79.768 28.93 81.2809 28.93C82.7939 28.93 84.1013 30.142 84.1013 31.922C84.1013 33.678 82.7939 34.912 81.2809 34.912ZM70.35 26.986C67.5869 26.986 65.3402 29.06 65.3402 31.922C65.3402 34.76 67.5869 36.856 70.35 36.856C73.1117 36.856 75.3598 34.76 75.3598 31.922C75.3598 29.06 73.1117 26.986 70.35 26.986ZM70.35 34.912C68.8356 34.912 67.5296 33.678 67.5296 31.922C67.5296 30.142 68.8356 28.93 70.35 28.93C71.863 28.93 73.1646 30.142 73.1646 31.922C73.1646 33.678 71.863 34.912 70.35 34.912ZM57.3427 28.499V30.596H62.4098C62.2616 31.768 61.8654 32.629 61.2578 33.23C60.5183 33.955 59.3663 34.76 57.3427 34.76C54.2244 34.76 51.7826 32.273 51.7826 29.191C51.7826 26.109 54.2244 23.621 57.3427 23.621C59.0288 23.621 60.2556 24.272 61.161 25.117L62.6563 23.639C61.3899 22.444 59.7053 21.525 57.3427 21.525C53.0666 21.525 49.4729 24.964 49.4729 29.191C49.4729 33.417 53.0666 36.856 57.3427 36.856C59.6539 36.856 61.3899 36.107 62.7546 34.703C64.1531 33.321 64.5889 31.378 64.5889 29.808C64.5889 29.321 64.5478 28.873 64.4744 28.499H57.3427ZM110.531 30.125C110.119 29.021 108.847 26.986 106.255 26.986C103.687 26.986 101.549 28.986 101.549 31.922C101.549 34.686 103.665 36.856 106.502 36.856C108.795 36.856 110.119 35.474 110.663 34.669L108.961 33.548C108.393 34.368 107.62 34.912 106.502 34.912C105.391 34.912 104.594 34.409 104.083 33.417L110.762 30.686L110.531 30.125ZM103.722 31.768C103.665 29.865 105.218 28.89 106.33 28.89C107.202 28.89 107.941 29.321 108.188 29.938L103.722 31.768ZM98.2943 36.556H100.49V22.052H98.2943V36.556ZM94.6991 28.085H94.6257C94.1327 27.508 93.1921 26.986 92.0005 26.986C89.5 26.986 87.2138 29.156 87.2138 31.938C87.2138 34.703 89.5 36.856 92.0005 36.856C93.1921 36.856 94.1327 36.329 94.6257 35.735H94.6991V36.442C94.6991 38.329 93.6792 39.343 92.0343 39.343C90.693 39.343 89.861 38.386 89.5176 37.581L87.6085 38.369C88.1588 39.677 89.6159 41.287 92.0343 41.287C94.6081 41.287 96.7799 39.79 96.7799 36.148V27.286H94.6991V28.085ZM92.1883 34.912C90.6754 34.912 89.409 33.661 89.409 31.938C89.409 30.199 90.6754 28.93 92.1883 28.93C93.6793 28.93 94.8547 30.199 94.8547 31.938C94.8547 33.661 93.6793 34.912 92.1883 34.912ZM120.809 22.052H115.559V36.556H117.748V31.06H120.809C123.241 31.06 125.625 29.321 125.625 26.555C125.625 23.791 123.235 22.052 120.809 22.052ZM120.866 29.043H117.748V24.069H120.866C122.501 24.069 123.434 25.411 123.434 26.555C123.434 27.678 122.501 29.043 120.866 29.043ZM134.4 26.959C132.819 26.959 131.174 27.649 130.497 29.179L132.44 29.984C132.858 29.179 133.627 28.918 134.44 28.918C135.576 28.918 136.728 29.592 136.745 30.783V30.935C136.349 30.709 135.501 30.374 134.458 30.374C132.365 30.374 130.233 31.513 130.233 33.637C130.233 35.581 131.947 36.833 133.874 36.833C135.347 36.833 136.16 36.176 136.671 35.411H136.745V36.532H138.86V30.969C138.86 28.397 136.917 26.959 134.4 26.959ZM134.136 34.906C133.42 34.906 132.422 34.556 132.422 33.678C132.422 32.555 133.667 32.125 134.744 32.125C135.708 32.125 136.16 32.335 136.745 32.612C136.574 33.955 135.404 34.906 134.136 34.906ZM146.564 27.276L144.047 33.563H143.973L141.371 27.276H139.01L142.919 36.062L140.688 40.952H142.976L149 27.276H146.564ZM126.829 36.556H129.024V22.052H126.829V36.556Z" stroke="white" stroke-width="0.1"/>
</g>
<path d="M13.5444 10.494C13.1996 10.851 13 11.407 13 12.126V37.786C13 38.505 13.1996 39.06 13.5444 39.417L13.6295 39.496L28.1776 25.123V24.783L13.6295 10.41L13.5444 10.494Z" fill="url(#paint0_linear_3_37)"/>
<path d="M33.0214 29.916L28.1774 25.123V24.783L33.0272 19.99L33.1358 20.052L38.8793 23.282C40.5185 24.199 40.5185 25.707 38.8793 26.63L33.1358 29.854L33.0214 29.916Z" fill="url(#paint1_linear_3_37)"/>
<path d="M33.1361 29.854L28.1777 24.953L13.5444 39.417C14.0889 39.983 14.9766 40.051 15.9862 39.486L33.1361 29.854Z" fill="url(#paint2_linear_3_37)"/>
<path d="M33.1361 20.052L15.9862 10.42C14.9766 9.85999 14.0889 9.92899 13.5444 10.494L28.1777 24.953L33.1361 20.052Z" fill="url(#paint3_linear_3_37)"/>
<path d="M50.9687 13.58V12.716C50.9687 11.785 51.2178 11.051 51.7158 10.514C52.2171 9.973 52.8991 9.703 53.7617 9.703C54.1654 9.703 54.5299 9.765 54.8555 9.889C55.1842 10.012 55.4528 10.18 55.6611 10.392C55.8695 10.6 56.0306 10.836 56.1445 11.1C56.2617 11.363 56.3268 11.643 56.3398 11.939H55.1875C55.1387 11.546 54.9824 11.243 54.7187 11.031C54.4551 10.816 54.1312 10.709 53.7471 10.709C53.2718 10.709 52.8877 10.877 52.5947 11.212C52.3018 11.547 52.1553 12.05 52.1553 12.721V13.58C52.1553 14.218 52.2871 14.719 52.5508 15.084C52.8177 15.445 53.2165 15.626 53.7471 15.626C54.1865 15.626 54.543 15.506 54.8164 15.265C55.0898 15.021 55.2266 14.715 55.2266 14.347V13.863H53.752V12.945H56.3545V14.288C56.3545 14.496 56.3268 14.705 56.2715 14.913C56.2161 15.121 56.1234 15.331 55.9932 15.543C55.863 15.751 55.7002 15.935 55.5049 16.095C55.3096 16.254 55.0589 16.384 54.7529 16.485C54.4502 16.583 54.1117 16.632 53.7373 16.632C52.8226 16.632 52.1325 16.357 51.667 15.807C51.2015 15.257 50.9687 14.514 50.9687 13.58ZM58.3605 16.5V9.835H62.5695V10.821H59.5373V12.652H62.3889V13.585H59.5373V15.514H62.5695V16.5H58.3605ZM63.9701 10.836V9.835H69.0141V10.836H67.0756V16.5H65.9037V10.836H63.9701ZM73.4168 16.5V9.835H74.5984V16.5H73.4168ZM76.2236 10.836V9.835H81.2676V10.836H79.3291V16.5H78.1572V10.836H76.2236ZM85.4066 13.639V12.75C85.4066 11.806 85.6573 11.062 86.1586 10.519C86.6599 9.975 87.3435 9.703 88.2094 9.703C89.0753 9.703 89.7572 9.975 90.2553 10.519C90.7533 11.062 91.0023 11.806 91.0023 12.75V13.639C91.0023 14.576 90.7517 15.31 90.2504 15.841C89.7523 16.368 89.0671 16.632 88.1947 16.632C87.3256 16.632 86.6436 16.368 86.1488 15.841C85.654 15.313 85.4066 14.579 85.4066 13.639ZM86.598 13.644C86.598 14.295 86.7445 14.789 87.0375 15.128C87.3305 15.463 87.7195 15.631 88.2045 15.631C88.6863 15.631 89.0736 15.463 89.3666 15.128C89.6596 14.789 89.8061 14.295 89.8061 13.644V12.74C89.8061 12.086 89.6579 11.583 89.3617 11.231C89.0687 10.88 88.683 10.704 88.2045 10.704C87.7227 10.704 87.3337 10.88 87.0375 11.231C86.7445 11.583 86.598 12.086 86.598 12.74V13.644ZM93.0035 16.5V9.835H94.024L97.0855 14.498H97.1246V9.835H98.2477V16.5H97.2369L94.1656 11.822H94.1314V16.5H93.0035Z" fill="white"/>
<defs>
<linearGradient id="paint0_linear_3_37" x1="26.8859" y1="38.053" x2="7.41489" y2="18.353" gradientUnits="userSpaceOnUse">
<stop stop-color="#00A0FF"/>
<stop offset="0.0066" stop-color="#00A1FF"/>
<stop offset="0.2601" stop-color="#00BEFF"/>
<stop offset="0.5122" stop-color="#00D2FF"/>
<stop offset="0.7604" stop-color="#00DFFF"/>
<stop offset="1" stop-color="#00E3FF"/>
</linearGradient>
<linearGradient id="paint1_linear_3_37" x1="41.0137" y1="24.951" x2="12.6079" y2="24.951" gradientUnits="userSpaceOnUse">
<stop stop-color="#FFE000"/>
<stop offset="0.4087" stop-color="#FFBD00"/>
<stop offset="0.7754" stop-color="#FFA500"/>
<stop offset="1" stop-color="#FF9C00"/>
</linearGradient>
<linearGradient id="paint2_linear_3_37" x1="30.4398" y1="22.289" x2="4.03553" y2="-4.4264" gradientUnits="userSpaceOnUse">
<stop stop-color="#FF3A44"/>
<stop offset="1" stop-color="#C31162"/>
</linearGradient>
<linearGradient id="paint3_linear_3_37" x1="9.86095" y1="47.954" x2="21.6517" y2="36.025" gradientUnits="userSpaceOnUse">
<stop stop-color="#32A071"/>
<stop offset="0.0685" stop-color="#2DA771"/>
<stop offset="0.4762" stop-color="#15CF74"/>
<stop offset="0.8009" stop-color="#06E775"/>
<stop offset="1" stop-color="#00F076"/>
</linearGradient>
</defs>
</svg>
