<svg width="160" height="50" viewBox="0 0 160 50" fill="none" xmlns="http://www.w3.org/2000/svg">
<path d="M155 0H5C2.23858 0 0 2.23858 0 5V45C0 47.7614 2.23858 50 5 50H155C157.761 50 160 47.7614 160 45V5C160 2.23858 157.761 0 155 0Z" fill="black"/>
<path fill-rule="evenodd" clip-rule="evenodd" d="M116.314 26.694H117.794V25.377L119.807 24V26.694H121.568V28.485H119.807V31.726C119.807 33.236 120.014 33.473 121.568 33.473V35.353H121.287C118.608 35.353 117.794 34.494 117.794 31.742V28.485H116.314V26.694ZM73.1781 24.397H75.1914V35.351H73.1781V24.397ZM51 29.95C51 26.872 53.3237 24.4 56.5207 24.4C58.7559 24.4 60.5174 25.539 61.4349 27.167L59.6588 28.233C58.9928 27.005 57.9568 26.353 56.5357 26.353C54.5227 26.353 52.998 27.982 52.998 29.95C52.998 31.948 54.508 33.547 56.6095 33.547C58.223 33.547 59.3481 32.629 59.7327 31.208H56.2842V29.284H61.8937V30.084C61.8937 32.999 59.8364 35.501 56.6095 35.501C53.2349 35.501 51 32.94 51 29.95ZM67.1057 26.517C64.9151 26.517 62.8132 28.159 62.8132 31.031C62.8132 33.858 64.9889 35.531 67.0761 35.531C68.2158 35.531 69.2518 35.027 69.8885 34.228V35.353H71.8865V26.694H69.8885V27.73C69.2667 26.99 68.2454 26.517 67.1057 26.517ZM67.4018 28.337C68.8818 28.337 69.992 29.536 69.992 31.001C69.992 32.496 68.8818 33.695 67.4018 33.695C65.9217 33.695 64.782 32.511 64.782 31.001C64.782 29.507 65.9217 28.337 67.4018 28.337ZM76.2102 31.031C76.2102 28.159 78.312 26.517 80.5027 26.517C81.6424 26.517 82.6637 26.99 83.2855 27.73V26.694H85.2835V35.353H83.2855V34.228C82.6491 35.027 81.6131 35.531 80.4731 35.531C78.3862 35.531 76.2102 33.858 76.2102 31.031ZM83.3892 31.001C83.3892 29.536 82.2791 28.337 80.7993 28.337C79.319 28.337 78.1792 29.507 78.1792 31.001C78.1792 32.511 79.319 33.695 80.7993 33.695C82.2788 33.695 83.3892 32.496 83.3892 31.001ZM86.0405 26.694L89.1783 30.942L85.9218 35.353H88.3642L90.4218 32.467L92.5382 35.353H94.9804L91.6647 30.972L94.7731 26.694H92.4052L90.4511 29.447L88.4829 26.694H86.0405ZM98.7265 34.923L95.1742 26.694H97.3053L99.7182 32.526L101.997 26.694H104.1L98.9337 39.349H96.9061L98.7265 34.923ZM110.037 32.112L108.201 33.562C109.178 34.672 110.466 35.501 112.42 35.501C114.788 35.501 116.15 33.843 116.15 32.141C116.15 30.069 114.492 29.418 113.027 28.944C112.955 28.92 112.883 28.897 112.812 28.874C111.734 28.522 110.821 28.225 110.821 27.419C110.821 26.724 111.354 26.191 112.331 26.191C113.189 26.191 113.826 26.546 114.285 27.227L115.942 25.969C115.069 25.066 114.063 24.4 112.316 24.4C110.244 24.4 108.734 25.762 108.734 27.493C108.734 29.551 110.348 30.113 111.798 30.572C111.861 30.592 111.923 30.611 111.986 30.63C113.069 30.96 114.048 31.259 114.048 32.126C114.048 32.882 113.471 33.577 112.405 33.577C111.428 33.577 110.584 33.044 110.037 32.112ZM126.587 26.516C124.085 26.516 122.102 28.515 122.102 31.031C122.102 33.532 124.085 35.531 126.587 35.531C129.073 35.531 131.071 33.532 131.071 31.031C131.071 28.515 129.073 26.516 126.587 26.516ZM126.587 28.396C127.993 28.396 129.103 29.581 129.103 31.031C129.103 32.467 127.993 33.651 126.587 33.651C125.151 33.651 124.07 32.467 124.07 31.031C124.07 29.581 125.151 28.396 126.587 28.396ZM132.094 26.694H134.077V27.982C134.477 27.123 135.202 26.694 136.297 26.694C136.919 26.694 137.437 26.842 137.822 27.064L137.067 28.958C136.771 28.766 136.43 28.618 135.868 28.618C134.714 28.618 134.092 29.24 134.092 30.734V35.353H132.094V26.694ZM142.545 26.516C140.013 26.516 138.045 28.515 138.045 31.046C138.045 33.547 139.895 35.53 142.619 35.53C144.543 35.53 145.905 34.584 146.66 33.192L145.017 32.245C144.602 33.162 143.729 33.769 142.619 33.769C141.198 33.769 140.221 32.941 139.955 31.726H147V30.972C147 28.411 145.12 26.516 142.545 26.516ZM144.972 30.054H140.058C140.413 29.003 141.346 28.278 142.545 28.278C143.788 28.278 144.676 28.9 144.972 30.054Z" fill="white"/>
<path d="M30.0909 10H21.9091C15.8842 10 11 14.8842 11 20.9091V29.0909C11 35.1158 15.8842 40 21.9091 40H30.0909C36.1158 40 41 35.1158 41 29.0909V20.9091C41 14.8842 36.1158 10 30.0909 10Z" fill="url(#paint0_linear_3_26)"/>
<path fill-rule="evenodd" clip-rule="evenodd" d="M29.9356 21.577L29.8789 21.328C29.8789 19.142 28.1 17.364 25.9137 17.364C23.7275 17.364 21.9489 19.142 21.9489 21.328L21.8921 21.577H18.6364L19.5139 29.759C19.6897 31.423 21.0931 32.685 22.7666 32.685H29.061C30.7344 32.685 32.1379 31.423 32.3136 29.759L33.1913 21.577H29.9356ZM23.6157 21.577L23.6796 21.328C23.6796 20.096 24.6819 19.094 25.9137 19.094C27.1459 19.094 28.1481 20.096 28.1481 21.328L28.212 21.577H23.6157Z" fill="white"/>
<path d="M56.3398 12.939C56.2861 11.782 55.4316 10.703 53.7617 10.703C52.0332 10.703 50.9687 11.855 50.9687 13.716V14.58C50.9687 16.377 51.8428 17.632 53.7373 17.632C55.6904 17.632 56.3545 16.279 56.3545 15.288V13.945H53.752V14.858H55.2266V15.347C55.2266 16.069 54.6357 16.626 53.7471 16.626C52.6484 16.626 52.1553 15.806 52.1553 14.58V13.721C52.1553 12.319 52.8486 11.709 53.7471 11.709C54.4844 11.709 55.0898 12.124 55.1875 12.939H56.3398ZM62.5695 16.514H59.5373V14.585H62.3889V13.652H59.5373V11.821H62.5695V10.835H58.3605V17.5H62.5695V16.514ZM67.0756 17.5V11.836H69.0141V10.835H63.9701V11.836H65.9037V17.5H67.0756ZM74.5984 17.5V10.835H73.4168V17.5H74.5984ZM79.4268 17.5V11.836H81.3652V10.835H76.3213V11.836H78.2549V17.5H79.4268ZM86.7006 13.74C86.7006 12.393 87.3842 11.704 88.307 11.704C89.2348 11.704 89.9086 12.393 89.9086 13.74V14.644C89.9086 15.991 89.2348 16.631 88.307 16.631C87.3842 16.631 86.7006 15.991 86.7006 14.644V13.74ZM85.5043 14.639C85.5043 16.523 86.5687 17.632 88.3021 17.632C90.0355 17.632 91.1098 16.523 91.1098 14.639V13.75C91.1098 11.86 90.0502 10.703 88.3119 10.703C86.5834 10.703 85.5043 11.855 85.5043 13.75V14.639ZM94.2193 17.5V12.822H94.2535L97.3443 17.5H98.3551V10.835H97.2516V15.498H97.2125L94.1314 10.835H93.1109V17.5H94.2193Z" fill="white"/>
<defs>
<linearGradient id="paint0_linear_3_26" x1="12.3636" y1="10" x2="34.5909" y2="40" gradientUnits="userSpaceOnUse">
<stop stop-color="#F004E1"/>
<stop offset="0.737772" stop-color="#FF226C"/>
<stop offset="1" stop-color="#FF6655"/>
</linearGradient>
</defs>
</svg>
