<svg width="32" height="32" viewBox="0 0 32 32" fill="none" xmlns="http://www.w3.org/2000/svg">
<g id="exchange">
<path id="Vector" d="M6.65734 14.688C6.3677 14.6883 6.08585 14.5943 5.8544 14.4201C5.62295 14.246 5.4545 14.0013 5.37451 13.7229C5.29453 13.4445 5.30736 13.1477 5.41107 12.8772C5.51478 12.6068 5.70373 12.3775 5.94934 12.224L9.53334 8.64C9.78352 8.38999 10.1228 8.24961 10.4765 8.24973C10.8302 8.24986 11.1693 8.39048 11.4193 8.64067C11.6693 8.89086 11.8097 9.23011 11.8096 9.58381C11.8095 9.9375 11.6689 10.2767 11.4187 10.5267L9.924 12.02H19.9907C20.3443 12.02 20.6834 12.1605 20.9335 12.4105C21.1835 12.6606 21.324 12.9997 21.324 13.3533C21.324 13.707 21.1835 14.0461 20.9335 14.2961C20.6834 14.5462 20.3443 14.6867 19.9907 14.6867H6.65734V14.688ZM25.3427 17.312C25.6323 17.3117 25.9142 17.4057 26.1456 17.5799C26.377 17.754 26.5455 17.9987 26.6255 18.2771C26.7055 18.5555 26.6926 18.8523 26.5889 19.1228C26.4852 19.3932 26.2963 19.6225 26.0507 19.776L22.4667 23.36C22.3428 23.4838 22.1957 23.582 22.0339 23.6489C21.8721 23.7159 21.6987 23.7503 21.5235 23.7503C21.3484 23.7502 21.175 23.7157 21.0132 23.6486C20.8514 23.5815 20.7045 23.4832 20.5807 23.3593C20.4569 23.2355 20.3587 23.0884 20.2917 22.9266C20.2248 22.7648 20.1903 22.5913 20.1904 22.4162C20.1905 22.2411 20.225 22.0677 20.2921 21.9059C20.3592 21.7441 20.4575 21.5971 20.5813 21.4733L22.076 19.98H12.0093C11.6557 19.98 11.3166 19.8395 11.0665 19.5895C10.8165 19.3394 10.676 19.0003 10.676 18.6467C10.676 18.293 10.8165 17.9539 11.0665 17.7039C11.3166 17.4538 11.6557 17.3133 12.0093 17.3133H25.3427V17.312Z" fill="#5E36B5"/>
</g>
</svg>
