<svg width="32" height="32" viewBox="0 0 32 32" fill="none" xmlns="http://www.w3.org/2000/svg">
<g id="secure">
<path id="Vector" d="M25.712 12.8H24V8C24 8 24 0 16 0C8 0 8 8 8 8V12.8H6.288C5.46901 12.8 4.68356 13.1253 4.10445 13.7045C3.52534 14.2836 3.2 15.069 3.2 15.888V28.928C3.20423 29.7442 3.53143 30.5256 4.11009 31.1012C4.68874 31.6769 5.47177 32 6.288 32H25.712C26.531 32 27.3164 31.6747 27.8955 31.0955C28.4747 30.5164 28.8 29.731 28.8 28.912V15.888C28.8 15.069 28.4747 14.2836 27.8955 13.7045C27.3164 13.1253 26.531 12.8 25.712 12.8V12.8ZM11.2 8.8C11.2 6.4 11.2 3.2 16 3.2C20.8 3.2 20.8 6.4 20.8 8.8V12.8H11.2V8.8ZM16 25.6C15.3671 25.6 14.7484 25.4123 14.2222 25.0607C13.6959 24.7091 13.2858 24.2093 13.0436 23.6246C12.8014 23.0399 12.738 22.3965 12.8615 21.7757C12.985 21.155 13.2897 20.5848 13.7373 20.1373C14.1848 19.6897 14.755 19.385 15.3757 19.2615C15.9964 19.138 16.6399 19.2014 17.2246 19.4436C17.8093 19.6858 18.3091 20.0959 18.6607 20.6222C19.0123 21.1484 19.2 21.7671 19.2 22.4C19.2 23.2487 18.8629 24.0626 18.2627 24.6627C17.6626 25.2629 16.8487 25.6 16 25.6Z" fill="#5E36B5"/>
</g>
</svg>
